<svg xmlns="http://www.w3.org/2000/svg" width="1500" height="1500" viewBox="0 0 1500 1500" version="1.1"><path d="M 1167.500 252.678 C 1168.600 253.795, 1174 258.635, 1179.500 263.434 C 1186.941 269.927, 1187.737 270.470, 1182.611 265.557 C 1176.087 259.303, 1163.245 248.359, 1167.500 252.678 M 1224.735 307.500 C 1239.753 323.996, 1245.497 329.936, 1238.011 321.231 C 1234.574 317.233, 1227.722 309.808, 1222.785 304.731 C 1214.938 296.660, 1215.183 297.008, 1224.735 307.500 M 1330.716 460.456 C 1334.404 467.857, 1337.579 473.754, 1337.771 473.562 C 1338.212 473.121, 1325.159 447, 1324.498 447 C 1324.229 447, 1327.027 453.055, 1330.716 460.456 M 1216.500 527.161 C 1187.900 543.684, 1148.075 566.671, 1128 578.245 C 1107.925 589.819, 1087.450 601.633, 1082.500 604.498 C 1077.550 607.364, 1057.750 618.812, 1038.500 629.938 C 1019.250 641.064, 1003.421 650.247, 1003.324 650.343 C 1003.227 650.440, 1004.715 655.015, 1006.632 660.510 C 1018.047 693.236, 1022.899 729.128, 1020.908 766.111 C 1016.135 854.769, 966.805 936.614, 890.500 982.475 C 842.544 1011.298, 790.215 1024.086, 733.299 1020.892 C 677.115 1017.739, 624.581 997.547, 580.005 961.970 C 567.244 951.786, 554.387 939.502, 544.805 928.341 C 540.867 923.753, 537.279 920, 536.832 920 C 536.385 920, 526.002 925.787, 513.759 932.860 C 501.517 939.933, 472.600 956.628, 449.500 969.959 C 426.400 983.290, 400.750 998.114, 392.500 1002.901 C 384.250 1007.688, 353.759 1025.306, 324.741 1042.052 C 285.534 1064.679, 272.127 1072.879, 272.546 1073.975 C 273.473 1076.400, 288.288 1096.678, 298.134 1109 C 391.384 1225.692, 523.539 1301.146, 670.254 1321.462 C 699.994 1325.580, 713.878 1326.456, 749.500 1326.463 C 786.535 1326.470, 801.319 1325.499, 832.500 1321.009 C 894.550 1312.074, 949.541 1294.913, 1006 1266.862 C 1049.229 1245.385, 1082.807 1223.408, 1122.945 1190.321 C 1136.574 1179.085, 1179.085 1136.574, 1190.321 1122.945 C 1223.408 1082.807, 1245.385 1049.229, 1266.862 1006 C 1295.974 947.405, 1313.349 890.339, 1322.429 823.500 C 1328.112 781.670, 1328.152 714.445, 1322.516 676.832 C 1322.241 674.999, 1321.326 668.775, 1320.483 663 C 1314.170 619.794, 1301.120 572.566, 1283.943 530.766 C 1279.116 519.020, 1270.126 499.107, 1269.064 497.811 C 1268.754 497.431, 1245.100 510.639, 1216.500 527.161 M 730.500 555.939 C 702.750 559.169, 675.106 568.112, 652.918 581.037 C 603.366 609.902, 569.350 657.975, 558.359 714.674 C 555.987 726.915, 555.676 730.908, 555.649 749.500 C 555.616 771.978, 556.576 779.946, 561.670 799.500 C 577.058 858.564, 621.199 908.317, 678.259 930.914 C 716.030 945.872, 759.619 948.569, 798.864 938.379 C 866.434 920.833, 920.833 866.434, 938.379 798.864 C 946.471 767.701, 946.497 733.748, 938.454 701.699 C 929.269 665.100, 907.961 630.062, 879.500 604.761 C 851.632 579.986, 818.533 564.192, 780.500 557.521 C 770.036 555.686, 740.661 554.756, 730.500 555.939 M 1397.991 782.705 C 1397.721 787.217, 1397.859 790.549, 1398.297 790.108 C 1398.735 789.667, 1398.956 785.975, 1398.788 781.903 L 1398.482 774.500 1397.991 782.705 M 261.800 1178.750 C 264.549 1181.912, 268.057 1185.625, 269.595 1187 C 271.133 1188.375, 269.068 1185.787, 265.005 1181.250 C 260.942 1176.713, 257.435 1173, 257.210 1173 C 256.986 1173, 259.051 1175.588, 261.800 1178.750 M 1233.441 1182.750 C 1228.560 1188.112, 1225.615 1191.600, 1226.896 1190.500 C 1229.732 1188.066, 1243.392 1173, 1242.763 1173 C 1242.517 1173, 1238.321 1177.388, 1233.441 1182.750 M 1208.488 1209.250 L 1192.500 1225.500 1208.750 1209.512 C 1217.688 1200.718, 1225 1193.406, 1225 1193.262 C 1225 1192.548, 1223.342 1194.153, 1208.488 1209.250 M 304.731 1222.785 C 309.808 1227.722, 317.233 1234.574, 321.231 1238.011 C 329.936 1245.497, 323.996 1239.753, 307.500 1224.735 C 297.008 1215.183, 296.660 1214.938, 304.731 1222.785 M 1183 1233.200 C 1177.249 1238.683, 1176.441 1239.668, 1180.500 1236.246 C 1186.278 1231.375, 1192.842 1224.949, 1191.937 1225.048 C 1191.697 1225.075, 1187.675 1228.743, 1183 1233.200 M 447 1324.497 C 447 1325.160, 471.121 1337.212, 471.563 1336.771 C 471.756 1336.578, 466.308 1333.628, 459.457 1330.215 C 452.606 1326.802, 447 1324.229, 447 1324.497" stroke="none" fill="#ffffff" fill-rule="evenodd"/><path d="M 714.500 101.591 C 636.467 107.288, 575.527 120.710, 510.313 146.566 C 355.186 208.070, 227.613 329.643, 158.850 481.500 C 144.296 513.641, 132.453 546.429, 123.994 578 C 121.710 586.525, 118.944 596.650, 117.847 600.500 C 112.086 620.724, 104.430 673.115, 102.210 707.500 C 101.291 721.731, 101.293 777.147, 102.212 792 C 103.180 807.640, 105.559 830.574, 107.503 843 C 116.659 901.520, 127.825 942.779, 148.233 993.500 C 195.920 1112.019, 280.369 1216.190, 386.861 1287.857 C 465.482 1340.768, 553.653 1375.763, 645.459 1390.495 C 684.569 1396.771, 705.875 1398.380, 750 1398.388 C 793.281 1398.397, 812.805 1396.959, 851.500 1390.915 C 1010.124 1366.137, 1155.426 1281.714, 1256.351 1155.689 C 1287.219 1117.144, 1308.865 1083.085, 1331.463 1037.500 C 1364.195 971.472, 1382.613 911.115, 1393.560 834 C 1394.614 826.575, 1397.760 792.088, 1398.121 784 C 1399.147 761.012, 1398.467 714.120, 1396.875 698.025 C 1396.411 693.336, 1395.561 684.775, 1394.986 679 C 1389.065 619.521, 1371.024 550.819, 1346.282 493.531 C 1258.589 290.486, 1073.352 145.297, 856.500 109.643 C 819.479 103.556, 799.569 101.938, 757 101.560 C 736.375 101.376, 717.250 101.390, 714.500 101.591 M 706 174.056 C 593.673 183.666, 492.915 221.439, 405 286.899 C 362.779 318.336, 318.336 362.779, 286.899 405 C 220.572 494.080, 182.077 597.941, 173.932 709.794 C 172.380 731.100, 173.246 789.362, 175.399 808.500 C 182.880 875.005, 199.915 937.201, 225.616 991.846 L 230.952 1003.193 234.226 1001.195 C 236.027 1000.096, 295.775 965.572, 367 924.475 C 438.225 883.378, 496.602 849.669, 496.728 849.566 C 496.853 849.463, 495.396 845.015, 493.490 839.683 C 474.807 787.409, 473.408 725.902, 489.677 672 C 499.715 638.743, 516.828 606.233, 538.632 579 C 547.371 568.085, 568.085 547.371, 579 538.632 C 619.335 506.337, 666.938 486.429, 719.500 479.871 C 732.428 478.259, 767.663 478.266, 780.500 479.885 C 839.369 487.306, 890.486 510.657, 933.500 549.776 C 941.790 557.315, 958.784 575.416, 961.120 579.194 C 961.461 579.746, 962.384 580.040, 963.171 579.848 C 965.611 579.254, 1227.959 427.547, 1227.980 426.718 C 1228.011 425.494, 1210.684 401.727, 1200.454 388.962 C 1157.076 334.832, 1105.406 289.933, 1044 253.012 C 1025.043 241.614, 986.848 222.763, 965.210 214.125 C 914.906 194.043, 866.343 182.010, 809 175.418 C 793.031 173.583, 722.445 172.649, 706 174.056 M 1216.500 527.161 C 1187.900 543.684, 1148.075 566.671, 1128 578.245 C 1107.925 589.819, 1087.450 601.633, 1082.500 604.498 C 1077.550 607.364, 1057.750 618.812, 1038.500 629.938 C 1019.250 641.064, 1003.421 650.247, 1003.324 650.343 C 1003.227 650.440, 1004.715 655.015, 1006.632 660.510 C 1018.047 693.236, 1022.899 729.128, 1020.908 766.111 C 1016.135 854.769, 966.805 936.614, 890.500 982.475 C 842.544 1011.298, 790.215 1024.086, 733.299 1020.892 C 677.115 1017.739, 624.581 997.547, 580.005 961.970 C 567.244 951.786, 554.387 939.502, 544.805 928.341 C 540.867 923.753, 537.279 920, 536.832 920 C 536.385 920, 526.002 925.787, 513.759 932.860 C 501.517 939.933, 472.600 956.628, 449.500 969.959 C 426.400 983.290, 400.750 998.114, 392.500 1002.901 C 384.250 1007.688, 353.759 1025.306, 324.741 1042.052 C 285.534 1064.679, 272.127 1072.879, 272.546 1073.975 C 273.473 1076.400, 288.288 1096.678, 298.134 1109 C 391.384 1225.692, 523.539 1301.146, 670.254 1321.462 C 699.994 1325.580, 713.878 1326.456, 749.500 1326.463 C 786.535 1326.470, 801.319 1325.499, 832.500 1321.009 C 894.550 1312.074, 949.541 1294.913, 1006 1266.862 C 1049.229 1245.385, 1082.807 1223.408, 1122.945 1190.321 C 1136.574 1179.085, 1179.085 1136.574, 1190.321 1122.945 C 1223.408 1082.807, 1245.385 1049.229, 1266.862 1006 C 1295.974 947.405, 1313.349 890.339, 1322.429 823.500 C 1328.112 781.670, 1328.152 714.445, 1322.516 676.832 C 1322.241 674.999, 1321.326 668.775, 1320.483 663 C 1314.170 619.794, 1301.120 572.566, 1283.943 530.766 C 1279.116 519.020, 1270.126 499.107, 1269.064 497.811 C 1268.754 497.431, 1245.100 510.639, 1216.500 527.161 M 730.500 555.939 C 702.750 559.169, 675.106 568.112, 652.918 581.037 C 603.366 609.902, 569.350 657.975, 558.359 714.674 C 555.987 726.915, 555.676 730.908, 555.649 749.500 C 555.616 771.978, 556.576 779.946, 561.670 799.500 C 577.058 858.564, 621.199 908.317, 678.259 930.914 C 716.030 945.872, 759.619 948.569, 798.864 938.379 C 866.434 920.833, 920.833 866.434, 938.379 798.864 C 946.471 767.701, 946.497 733.748, 938.454 701.699 C 929.269 665.100, 907.961 630.062, 879.500 604.761 C 851.632 579.986, 818.533 564.192, 780.500 557.521 C 770.036 555.686, 740.661 554.756, 730.500 555.939" stroke="none" fill="#333333" fill-rule="evenodd"/><path d="M 706 174.056 C 593.673 183.666, 492.915 221.439, 405 286.899 C 362.779 318.336, 318.336 362.779, 286.899 405 C 220.572 494.080, 182.077 597.941, 173.932 709.794 C 172.380 731.100, 173.246 789.362, 175.399 808.500 C 182.880 875.005, 199.915 937.201, 225.616 991.846 L 230.952 1003.193 234.226 1001.195 C 236.027 1000.096, 295.775 965.572, 367 924.475 C 438.225 883.378, 496.602 849.669, 496.728 849.566 C 496.853 849.463, 495.396 845.015, 493.490 839.683 C 474.807 787.409, 473.408 725.902, 489.677 672 C 499.715 638.743, 516.828 606.233, 538.632 579 C 547.371 568.085, 568.085 547.371, 579 538.632 C 619.335 506.337, 666.938 486.429, 719.500 479.871 C 732.428 478.259, 767.663 478.266, 780.500 479.885 C 839.369 487.306, 890.486 510.657, 933.500 549.776 C 941.790 557.315, 958.784 575.416, 961.120 579.194 C 961.461 579.746, 962.384 580.040, 963.171 579.848 C 965.611 579.254, 1227.959 427.547, 1227.980 426.718 C 1228.011 425.494, 1210.684 401.727, 1200.454 388.962 C 1157.076 334.832, 1105.406 289.933, 1044 253.012 C 1025.043 241.614, 986.848 222.763, 965.210 214.125 C 914.906 194.043, 866.343 182.010, 809 175.418 C 793.031 173.583, 722.445 172.649, 706 174.056" stroke="none" fill="#ed1b24" fill-rule="evenodd"/></svg>